<svg width="800" height="520" viewBox="0 0 800 520" fill="none" xmlns="http://www.w3.org/2000/svg">
  <rect width="800" height="520" rx="36" fill="url(#bg)"/>
  <path d="M334 133H466L494 367C495 391 476 410 452 410H348C324 410 305 391 306 367L334 133Z" fill="#D0E3EA"/>
  <path d="M350 154H450L472 354C473 371 460 386 442 386H358C340 386 327 371 328 354L350 154Z" fill="#8B5433"/>
  <path d="M350 154H450L455 198H345L350 154Z" fill="#C88E62"/>
  <path d="M340 112C363 92 381 83 400 83C419 83 437 92 460 112" stroke="#FFF2D4" stroke-width="16" stroke-linecap="round"/>
  <path d="M433 133C440 103 459 89 490 91C524 93 541 120 541 156C541 196 518 221 476 222" stroke="#D0E3EA" stroke-width="14" stroke-linecap="round"/>
  <path d="M364 214C380 226 376 246 362 262" stroke="#F2D6BC" stroke-width="10" stroke-linecap="round"/>
  <path d="M406 224C421 238 418 256 406 270" stroke="#F2D6BC" stroke-width="10" stroke-linecap="round"/>
  <path d="M445 214C462 228 458 247 444 262" stroke="#F2D6BC" stroke-width="10" stroke-linecap="round"/>
  <path d="M194 102H606" stroke="#F7EFE5" stroke-width="16" stroke-linecap="round" opacity="0.45"/>
  <text x="52" y="450" fill="#FFF8ED" font-size="56" font-family="Trebuchet MS, sans-serif" font-weight="700">Cold Coffee</text>
  <text x="54" y="488" fill="#F4E6DD" font-size="24" font-family="Trebuchet MS, sans-serif">Iced coffee with creamy froth and cafe vibes</text>
  <defs>
    <linearGradient id="bg" x1="60" y1="44" x2="730" y2="475" gradientUnits="userSpaceOnUse">
      <stop stop-color="#7A5136"/>
      <stop offset="1" stop-color="#2B1A15"/>
    </linearGradient>
  </defs>
</svg>
